<svg width="40" height="40" viewBox="0 0 40 40" fill="none" xmlns="http://www.w3.org/2000/svg" role="img" aria-label="Лілея">
  <g stroke="currentColor" stroke-width="1.6" stroke-linecap="round" stroke-linejoin="round" fill="none">
    <!-- stem -->
    <path d="M20 37 C20 30 20 24 20 20"/>
    <!-- leaves -->
    <path d="M20 30 C15 29 12 26 11 22 C16 22 19 25 20 30Z" fill="currentColor" fill-opacity="0.10"/>
    <path d="M20 27 C25 26 28 23 29 19 C24 19 21 22 20 27Z" fill="currentColor" fill-opacity="0.10"/>
    <!-- bloom petals (lily) -->
    <path d="M20 20 C16.5 16.5 16.5 9 20 4 C23.5 9 23.5 16.5 20 20Z"/>
    <path d="M20 20 C24 17.5 31 17 35.5 20.5 C30.5 23.5 23.5 22.5 20 20Z"/>
    <path d="M20 20 C16 17.5 9 17 4.5 20.5 C9.5 23.5 16.5 22.5 20 20Z"/>
    <path d="M20 20 C18 16 19.5 9.5 24 6 C25.5 11.5 23.5 17 20 20Z" fill="currentColor" fill-opacity="0.08"/>
    <path d="M20 20 C22 16 20.5 9.5 16 6 C14.5 11.5 16.5 17 20 20Z" fill="currentColor" fill-opacity="0.08"/>
    <circle cx="20" cy="19" r="1.4" fill="currentColor" stroke="none"/>
  </g>
</svg>
